<?xml version="1.0" standalone="no"?>
<!DOCTYPE svg PUBLIC "-//W3C//DTD SVG 20010904//EN"
 "http://www.w3.org/TR/2001/REC-SVG-20010904/DTD/svg10.dtd">
<svg version="1.0" xmlns="http://www.w3.org/2000/svg"
 width="572.000000pt" height="522.000000pt" viewBox="0 0 572.000000 522.000000"
 preserveAspectRatio="xMidYMid meet">
<metadata>
Created by potrace 1.16, written by Peter Selinger 2001-2019
</metadata>
<g transform="translate(0.000000,522.000000) scale(0.100000,-0.100000)"
fill="#000000" stroke="none">
<path d="M4000 4915 c0 -8 -7 -15 -15 -15 -19 0 -19 -19 1 -59 23 -47 -2 -121
-43 -121 -7 0 -13 -4 -13 -9 0 -5 -26 -15 -57 -22 -69 -14 -308 -6 -329 12 -8
6 -14 8 -14 4 0 -4 -6 -3 -12 2 -7 6 -38 13 -68 16 -30 4 -56 11 -58 17 -2 5
-19 12 -38 16 -19 3 -36 10 -39 14 -3 5 -13 6 -23 3 -10 -2 -24 3 -31 11 -8 9
-22 16 -32 16 -10 0 -20 4 -23 9 -4 5 -24 12 -46 16 -22 4 -40 10 -40 14 0 4
-25 14 -55 21 -30 7 -55 17 -55 22 0 15 -37 8 -51 -9 -15 -19 -43 -75 -53
-105 -3 -10 -12 -18 -21 -18 -8 0 -15 -4 -15 -10 0 -13 -107 -13 -114 -1 -4 5
-24 12 -46 16 -22 4 -42 10 -44 14 -3 4 -29 6 -59 3 -33 -2 -58 1 -62 7 -9 15
-361 15 -370 0 -4 -6 -19 -9 -33 -8 -15 1 -34 -1 -42 -4 -8 -3 -28 -8 -45 -12
-48 -10 -278 -121 -316 -153 -55 -47 -115 -92 -121 -92 -5 0 -8 -6 -8 -13 0
-7 -16 -28 -35 -47 -19 -19 -35 -40 -35 -47 0 -8 -7 -16 -15 -19 -8 -4 -15
-11 -15 -17 0 -5 -10 -24 -23 -41 -12 -17 -28 -44 -36 -61 -7 -16 -23 -49 -35
-73 -19 -39 -21 -58 -20 -202 1 -109 5 -164 13 -174 7 -8 11 -20 10 -28 -1 -7
3 -26 9 -41 7 -16 12 -39 12 -52 0 -13 4 -26 9 -29 5 -3 12 -22 15 -41 4 -19
11 -35 16 -35 5 0 12 -16 16 -36 4 -19 13 -38 20 -41 8 -3 14 -13 14 -22 0
-16 8 -33 48 -104 12 -21 22 -51 22 -67 l0 -30 -623 -2 c-489 -2 -627 -6 -639
-16 -19 -16 -9 -75 18 -100 16 -16 137 -17 1626 -14 l1609 2 42 -36 c37 -33
48 -37 97 -37 49 0 60 4 97 37 l41 36 715 0 c667 0 715 1 730 18 23 25 23 25
2 50 l-19 22 -658 0 c-362 0 -658 3 -658 6 0 3 11 15 24 25 31 25 67 98 73
152 2 23 7 49 10 57 3 8 5 29 4 46 -1 18 2 35 8 39 13 7 15 161 2 169 -4 3
-14 39 -20 81 -7 41 -16 75 -21 75 -4 0 -11 12 -15 28 -9 40 -45 112 -56 112
-5 0 -9 6 -9 13 0 17 -114 127 -130 127 -7 0 -29 13 -49 29 -20 16 -51 32 -68
36 -18 3 -33 11 -33 16 0 5 -6 9 -13 9 -8 0 -22 9 -32 20 -10 11 -24 20 -31
20 -8 0 -44 17 -81 38 l-68 37 -905 5 -905 5 -3 39 c-3 32 2 44 29 72 18 19
39 34 45 34 7 0 19 12 26 27 7 15 22 32 33 38 11 5 36 22 55 37 19 14 52 29
72 33 21 4 42 13 49 21 6 8 20 14 30 14 11 0 19 5 19 11 0 6 10 9 23 8 12 -2
28 0 35 5 7 4 46 10 88 13 41 3 77 10 80 14 8 13 284 11 284 -1 0 -5 17 -10
38 -10 77 0 302 -46 302 -61 0 -4 15 -11 33 -14 17 -4 37 -11 42 -15 6 -5 12
-8 15 -8 3 -1 18 -5 33 -11 16 -6 32 -11 37 -11 4 0 10 -7 14 -15 3 -8 11 -15
19 -15 7 0 29 -16 47 -35 36 -37 67 -43 80 -15 4 8 12 25 18 37 7 13 12 29 12
36 0 7 18 30 39 51 39 38 39 38 111 34 39 -2 74 -9 78 -14 4 -6 30 -15 57 -19
28 -4 55 -10 60 -14 6 -5 62 -14 125 -20 118 -13 241 -4 248 19 2 5 9 10 16
10 24 0 115 102 122 136 3 19 9 34 13 34 17 0 6 33 -20 61 -29 31 -69 39 -69
14z m-920 -124 c0 -5 15 -13 33 -16 44 -10 87 -42 87 -66 0 -24 -52 -79 -74
-79 -8 0 -18 5 -21 10 -3 6 -15 10 -26 10 -26 0 -99 68 -99 93 0 30 31 56 68
56 17 1 32 -3 32 -8z m-1420 -476 c23 -25 26 -25 174 -25 l150 0 33 -32 33
-32 0 -456 0 -456 -30 -29 -30 -29 -21 20 c-20 20 -20 32 -20 344 0 178 -3
328 -8 334 -4 6 -11 26 -15 44 -3 19 -19 51 -36 72 -16 21 -30 42 -30 48 0 13
-66 52 -89 52 -10 0 -23 6 -29 13 -6 7 -34 14 -63 15 -50 2 -56 0 -95 -39 -23
-23 -47 -38 -53 -35 -14 9 -14 43 -1 51 6 3 15 26 21 51 6 24 15 44 20 44 5 0
9 5 9 12 0 13 39 58 50 58 4 0 17 -11 30 -25z m1604 -70 c18 -14 40 -25 49
-25 9 0 19 -4 22 -10 3 -5 15 -10 25 -10 24 0 190 -157 190 -179 0 -9 9 -24
20 -34 11 -9 20 -26 20 -37 0 -11 4 -20 8 -20 4 0 14 -17 21 -37 8 -21 18 -41
24 -44 13 -9 15 -322 2 -340 -6 -8 -10 -29 -9 -46 1 -18 -2 -35 -6 -38 -5 -3
-12 -27 -16 -53 -4 -26 -10 -49 -13 -52 -3 -3 -13 -18 -21 -35 -13 -25 -22
-30 -50 -30 -43 0 -51 25 -22 64 11 15 23 42 27 61 4 19 12 40 17 47 5 7 12
84 15 171 l6 158 -93 97 c-74 78 -98 97 -121 97 -15 0 -30 4 -33 9 -3 4 -29
11 -58 15 -29 4 -57 11 -63 16 -5 4 -81 10 -167 11 -146 4 -158 6 -180 27 -14
12 -28 22 -32 22 -4 0 -19 14 -33 30 -29 35 -42 37 -74 11 l-23 -18 22 -28
c12 -15 22 -34 22 -41 0 -8 5 -14 10 -14 6 0 10 -6 10 -14 0 -8 23 -37 51 -64
37 -37 62 -52 90 -57 22 -4 39 -11 39 -15 0 -5 18 -8 40 -7 22 1 40 5 40 10 0
4 14 7 31 5 38 -4 62 -33 40 -47 -9 -6 -16 -32 -19 -70 -4 -56 -2 -64 22 -87
31 -32 89 -64 115 -64 29 0 45 24 26 40 -8 7 -15 19 -15 26 0 8 -4 14 -10 14
-5 0 -10 22 -10 48 0 41 5 53 29 75 68 60 165 35 259 -68 29 -31 52 -60 52
-65 0 -4 -7 -13 -15 -20 -10 -8 -15 -30 -15 -61 0 -26 -4 -50 -9 -53 -4 -3
-11 -24 -15 -46 -7 -44 -43 -120 -57 -120 -5 0 -9 -5 -9 -10 0 -12 -40 -71
-55 -82 -5 -4 -155 -8 -331 -8 -261 0 -324 3 -333 14 -8 9 -11 74 -9 210 2
108 0 196 -4 196 -5 0 -8 7 -8 15 0 8 -3 15 -7 15 -14 0 -53 -44 -53 -61 0
-10 -4 -21 -10 -24 -6 -4 -10 -71 -10 -168 0 -171 -6 -202 -34 -174 -14 14
-16 69 -16 484 l0 468 23 15 c29 19 126 26 420 28 l238 2 33 -25z m-1732 -224
c6 -55 37 -101 68 -101 9 0 20 -3 23 -7 9 -8 67 -10 67 -1 0 4 9 10 20 13 11
3 20 14 20 23 0 9 11 31 25 47 24 29 25 29 40 11 8 -11 15 -32 15 -46 0 -14 7
-35 15 -46 12 -15 14 -66 15 -275 0 -141 -3 -259 -7 -263 -4 -4 -6 -22 -5 -40
4 -43 -17 -60 -64 -53 -20 3 -42 11 -49 17 -17 14 -105 192 -105 212 0 8 -7
21 -15 28 -8 7 -15 21 -15 32 0 10 -7 29 -14 41 -8 12 -18 54 -22 92 -4 39
-11 75 -16 82 -5 6 -12 37 -15 67 -3 31 -12 61 -19 67 -16 14 -19 95 -4 134
15 40 34 25 42 -34z"/>
<path d="M2155 2890 c-3 -6 -36 -10 -73 -11 -59 -1 -63 -2 -34 -10 l32 -10 0
-132 c0 -90 -4 -137 -12 -145 -7 -7 -9 -12 -4 -12 13 0 -20 -28 -40 -33 -14
-3 -12 -5 9 -6 15 0 27 4 27 9 0 6 15 10 34 10 19 0 38 -4 41 -10 3 -5 27 -9
53 -8 41 1 42 2 12 5 -59 7 -70 25 -70 115 l0 78 44 0 c65 0 106 -37 106 -94
0 -29 -7 -49 -20 -64 -31 -33 -6 -27 34 9 65 56 61 113 -9 144 -25 11 -45 21
-45 23 0 2 14 15 30 29 30 25 40 66 20 78 -6 4 -8 11 -5 16 4 5 -2 9 -13 9
-10 0 -22 3 -25 6 -11 11 -86 14 -92 4z m62 -22 c49 -45 14 -128 -54 -128
l-33 0 0 57 c0 84 39 116 87 71z"/>
<path d="M2405 2770 c-12 -4 -27 -15 -34 -24 -11 -13 -11 -16 2 -16 8 0 18
-10 21 -22 9 -30 10 -154 1 -167 -4 -7 4 -11 19 -11 14 0 26 4 26 9 0 5 15 13
33 17 31 7 31 8 7 14 -23 5 -25 11 -28 65 -2 45 1 61 12 67 19 11 21 29 4 26
-7 -2 -13 4 -13 12 -1 18 -13 40 -23 39 -4 0 -16 -4 -27 -9z"/>
<path d="M3236 2773 c-4 -4 -35 -7 -69 -6 -34 1 -54 -1 -43 -4 15 -4 17 -12
13 -44 -5 -42 -37 -118 -49 -119 -5 0 -8 9 -8 20 0 11 -4 20 -9 20 -5 0 -13
15 -16 33 -4 17 -12 37 -17 44 -5 7 -7 16 -4 21 3 6 -1 15 -8 22 -12 9 -20 8
-40 -5 -25 -17 -25 -17 -6 -38 14 -14 17 -24 10 -31 -14 -14 -12 -26 3 -20 7
2 18 -6 24 -18 25 -55 36 -84 35 -90 -1 -5 5 -8 13 -8 8 0 15 7 15 15 0 7 6
18 13 22 13 9 33 41 69 116 25 52 29 54 49 30 16 -19 21 -152 6 -170 -11 -14
19 -16 62 -4 21 6 22 8 7 20 -21 17 -21 87 -1 129 21 41 48 49 74 23 18 -18
21 -34 21 -101 0 -71 2 -80 18 -80 10 0 27 6 38 14 15 12 17 17 7 27 -8 8 -13
41 -13 84 0 57 -4 75 -18 88 -23 21 -60 22 -81 3 -25 -22 -56 -24 -55 -3 2 17
-26 24 -40 10z"/>
<path d="M2508 2756 c-22 -16 -23 -26 -3 -26 8 0 15 -7 15 -15 0 -17 26 -20
35 -4 4 6 17 14 29 19 l21 9 -21 0 c-12 1 -27 8 -34 16 -15 18 -20 18 -42 1z"/>
<path d="M2670 2760 c0 -5 8 -10 18 -10 31 0 72 -52 72 -91 0 -39 -33 -79 -64
-79 -29 0 -76 55 -76 89 0 17 3 31 8 31 4 0 12 11 19 25 17 37 -3 32 -43 -11
-38 -39 -43 -74 -19 -120 16 -31 36 -42 78 -43 33 -1 117 45 117 64 0 7 7 18
15 25 46 38 -15 130 -86 130 -21 0 -39 -4 -39 -10z"/>
<path d="M2870 2761 c0 -4 -15 -13 -32 -19 -32 -10 -32 -10 -6 -11 21 -1 28
-7 33 -33 4 -18 12 -38 17 -45 5 -7 7 -17 3 -23 -3 -5 -1 -10 4 -10 6 0 11
-13 11 -29 0 -41 14 -46 39 -15 24 30 27 45 9 42 -7 -2 -12 3 -10 11 1 7 -1
18 -6 25 -5 6 -13 29 -17 51 -7 41 -21 65 -36 65 -5 0 -9 -4 -9 -9z"/>
<path d="M302 2257 c-39 -40 -40 -51 -5 -88 l28 -29 492 0 c317 0 494 -4 498
-10 3 -5 15 -10 25 -10 13 0 21 -10 25 -32 8 -37 20 -48 52 -48 16 0 23 8 28
31 11 50 38 69 95 69 43 0 55 -4 75 -27 23 -27 24 -32 19 -158 -5 -122 -21
-192 -46 -203 -4 -2 -11 -26 -14 -54 -4 -27 -13 -52 -20 -55 -8 -3 -14 -13
-14 -23 0 -10 -6 -25 -13 -32 -7 -7 -16 -21 -20 -30 -3 -10 -20 -26 -38 -37
-17 -11 -36 -30 -43 -43 -6 -12 -24 -29 -39 -36 -15 -7 -27 -19 -27 -27 0 -8
-10 -31 -21 -52 -57 -99 -69 -129 -69 -162 0 -21 -5 -42 -11 -48 -14 -14 -14
-139 0 -176 6 -16 11 -49 11 -73 0 -27 6 -52 15 -60 8 -9 15 -24 15 -35 0 -10
4 -19 10 -19 5 0 21 -27 37 -60 15 -33 32 -60 39 -60 11 0 28 -35 25 -52 -1
-5 4 -8 9 -8 6 0 40 -29 78 -65 37 -36 73 -65 81 -65 7 0 26 -11 43 -25 16
-14 38 -25 48 -25 10 0 22 -4 25 -10 3 -5 13 -10 21 -10 8 0 28 -9 43 -21 26
-19 46 -21 232 -26 196 -5 337 5 363 26 6 5 26 12 44 16 17 3 32 10 32 15 0 5
14 12 32 15 92 21 218 128 269 230 16 33 34 67 38 75 19 36 40 87 46 115 3 17
18 42 33 57 l26 28 188 0 c103 0 188 -4 188 -9 0 -5 15 -11 32 -15 41 -8 113
-42 128 -62 7 -7 18 -14 24 -14 6 -1 20 -12 31 -27 11 -14 32 -40 47 -58 20
-23 30 -51 38 -102 15 -97 1 -154 -50 -205 -36 -34 -45 -38 -91 -38 l-52 0 6
49 c5 40 2 54 -14 75 -11 14 -29 26 -40 26 -10 0 -19 5 -19 10 0 18 -18 10
-54 -24 -31 -28 -36 -40 -36 -77 0 -66 8 -83 43 -99 18 -7 34 -16 37 -19 23
-27 110 -52 110 -32 0 5 23 11 50 15 31 4 53 13 57 21 3 8 13 15 22 15 23 0
91 71 91 96 0 11 6 26 13 33 8 8 12 52 12 145 0 98 4 137 14 149 15 18 71 23
71 7 0 -27 135 3 148 33 2 4 9 7 16 7 6 0 36 25 66 55 52 53 54 56 54 111 1
37 -3 59 -11 61 -7 3 -13 10 -13 17 0 13 -61 76 -74 76 -4 0 -14 -7 -22 -15
-9 -8 -12 -15 -8 -15 3 0 1 -7 -6 -15 -7 -9 -9 -22 -5 -32 5 -10 7 -21 7 -25
-1 -5 6 -8 16 -8 47 0 56 -62 16 -110 -15 -17 -32 -29 -38 -27 -7 3 -20 -1
-31 -9 -10 -8 -36 -14 -56 -14 -21 0 -41 -4 -44 -10 -8 -12 -135 -13 -135 -1
0 5 -25 12 -55 16 -30 3 -57 10 -60 15 -3 4 -13 6 -23 3 -10 -2 -24 3 -31 11
-8 9 -21 16 -30 16 -9 0 -25 7 -35 15 -11 8 -32 15 -48 15 -15 0 -28 4 -28 8
0 15 -140 32 -261 32 -153 0 -169 8 -169 85 0 83 5 85 269 85 205 0 362 12
386 30 6 4 26 11 45 15 19 4 41 11 50 16 18 11 71 32 85 35 22 4 75 29 75 35
0 4 12 10 26 13 14 4 40 22 57 41 18 19 37 35 43 35 11 0 54 42 54 53 0 4 13
22 29 40 80 88 141 187 141 231 0 9 4 16 9 16 5 0 12 24 15 52 4 29 12 58 18
65 5 7 12 68 15 135 3 68 10 129 16 136 7 9 131 12 555 12 l546 0 37 36 37 36
-43 39 -42 39 -2475 0 -2474 0 -32 -33z m1682 -132 l26 -24 -2 -218 -3 -218
-168 -3 c-147 -2 -168 0 -174 14 -3 9 -1 19 6 23 6 4 14 32 18 62 3 30 12 62
21 71 8 9 16 39 19 65 7 69 29 113 56 113 22 0 23 -3 22 -115 0 -91 3 -117 16
-130 14 -14 17 -14 33 4 16 17 18 38 17 167 l-2 147 32 34 c39 40 48 40 83 8z
m993 -15 c100 0 113 -8 73 -45 -11 -10 -20 -24 -20 -32 0 -7 -4 -13 -10 -13
-5 0 -10 -26 -12 -57 l-3 -58 -39 -3 c-21 -2 -43 1 -49 7 -6 6 -52 11 -107 11
-95 0 -96 0 -107 28 -7 15 -16 34 -22 42 -5 8 -17 32 -27 52 -18 36 -17 38 1
59 19 20 26 21 124 15 57 -3 146 -6 198 -6z m460 -16 c3 -8 1 -20 -6 -27 -6
-6 -11 -20 -11 -31 0 -12 -10 -42 -22 -67 -37 -74 -131 -106 -192 -66 -45 30
-32 109 29 174 29 30 33 31 113 32 66 1 84 -2 89 -15z m167 9 c4 -5 13 -8 19
-8 15 0 22 -112 8 -140 -5 -11 -12 -40 -16 -65 -3 -24 -10 -49 -16 -56 -5 -7
-12 -35 -16 -64 -3 -28 -14 -68 -24 -88 -11 -20 -19 -44 -19 -54 0 -10 -4 -18
-9 -18 -5 0 -12 -8 -15 -17 -13 -36 -51 -95 -61 -96 -5 0 -38 -26 -73 -57 -40
-37 -75 -60 -97 -64 -18 -4 -35 -10 -37 -14 -6 -15 -77 -44 -92 -39 -9 4 -16
2 -16 -3 0 -6 -46 -10 -110 -10 -70 0 -110 4 -110 10 0 6 -8 10 -17 8 -14 -2
-19 5 -21 37 -2 22 -8 44 -13 50 -5 5 -9 28 -9 51 0 24 -4 45 -10 49 -5 3 -8
32 -7 64 1 43 -3 63 -16 75 -36 37 -23 46 67 46 47 0 87 -4 90 -8 5 -9 31 -9
56 1 8 3 46 8 83 10 43 3 75 11 86 21 11 10 35 16 64 16 26 0 49 5 54 13 4 7
19 20 33 28 14 9 44 35 66 58 23 22 47 41 53 41 6 0 11 11 11 24 0 13 11 47
25 74 14 28 25 62 25 76 0 14 5 26 10 26 6 0 10 7 10 15 0 15 31 21 44 8z
m-1044 -112 c0 -10 7 -24 15 -31 7 -6 17 -31 21 -55 3 -25 13 -50 21 -56 16
-14 9 -65 -14 -90 -13 -15 -9 -22 35 -63 36 -34 52 -57 57 -84 4 -20 11 -43
17 -49 6 -7 14 -50 19 -95 5 -46 14 -87 19 -92 16 -16 12 -63 -6 -70 -9 -3
-57 -6 -107 -6 -79 0 -94 3 -114 22 l-23 21 0 311 c0 171 3 321 6 334 8 29 54
32 54 3z m-607 -459 c24 -25 27 -36 27 -93 0 -59 -3 -68 -28 -92 -16 -15 -31
-24 -35 -20 -4 3 -7 1 -7 -5 0 -9 -42 -12 -149 -12 -135 0 -151 -2 -175 -21
-35 -27 -33 -53 7 -83 26 -20 46 -26 102 -28 66 -3 70 -5 79 -30 9 -25 5 -32
-33 -68 l-42 -40 -111 0 c-101 0 -114 -2 -135 -22 -30 -28 -29 -48 5 -81 26
-25 34 -27 119 -27 77 0 92 -3 97 -17 22 -59 71 -123 93 -123 7 0 13 -7 13
-15 0 -8 7 -15 15 -15 8 0 15 -4 15 -10 0 -5 17 -12 38 -16 20 -4 41 -9 47
-12 5 -4 22 -5 37 -3 14 1 29 -2 33 -8 10 -17 100 -14 115 4 7 8 20 15 29 15
19 0 131 109 131 128 0 7 5 12 12 12 14 0 58 40 58 52 0 5 6 16 14 24 12 11
50 14 182 14 158 0 169 -1 191 -22 30 -28 29 -53 -2 -94 -14 -18 -25 -37 -25
-43 0 -6 -9 -15 -19 -21 -11 -5 -22 -23 -26 -40 -4 -16 -11 -30 -16 -30 -5 0
-9 -6 -9 -13 0 -16 -82 -97 -98 -97 -7 0 -12 -4 -12 -9 0 -5 -13 -12 -29 -16
-16 -3 -32 -13 -35 -21 -3 -8 -14 -14 -25 -14 -11 0 -23 -5 -26 -11 -4 -6 -13
-8 -20 -5 -8 3 -19 -2 -25 -10 -7 -8 -27 -14 -44 -14 -18 0 -38 -6 -44 -12
-18 -18 -414 -18 -420 0 -2 6 -17 12 -32 12 -16 0 -31 4 -34 8 -3 5 -38 25
-78 45 -77 39 -224 169 -213 187 3 6 2 10 -3 10 -6 0 -13 15 -16 34 -4 19 -13
39 -21 46 -8 7 -15 18 -15 25 0 7 -7 25 -15 41 -8 16 -17 49 -20 74 -4 25 -10
54 -15 65 -18 42 -20 102 -5 115 8 7 20 31 26 54 6 22 14 43 18 46 10 8 62
119 59 126 -2 4 7 10 20 15 12 5 26 19 32 33 5 13 18 27 29 31 12 3 21 11 21
16 0 12 25 39 35 39 4 0 20 11 37 25 16 14 36 25 44 25 8 0 14 5 14 10 0 6 46
10 118 10 117 0 119 0 145 -28z m785 -375 c27 -25 30 -82 5 -109 -14 -16 -34
-18 -191 -18 -204 0 -212 3 -212 78 0 82 7 85 205 77 152 -7 172 -10 193 -28z"/>
</g>
</svg>
